<svg width="150" height="103" viewBox="0 0 150 103" fill="none" xmlns="http://www.w3.org/2000/svg">
<g clip-path="url(#clip0)">
<path d="M63.814 24.8006C62.5956 29.3043 58.4225 32.0936 58.4225 32.0936C58.4225 32.0936 56.2248 27.5809 57.4431 23.0771C58.6615 18.5734 62.8345 15.7841 62.8345 15.7841C62.8345 15.7841 65.0323 20.2969 63.814 24.8006Z" fill="#82FF63"/>
<path d="M52.7305 24.8006C53.9488 29.3043 58.1219 32.0936 58.1219 32.0936C58.1219 32.0936 60.3197 27.5809 59.1013 23.0771C57.883 18.5734 53.7099 15.7841 53.7099 15.7841C53.7099 15.7841 51.5121 20.2969 52.7305 24.8006Z" fill="#82FF63"/>
<path d="M54.5208 23.8327C57.8639 27.0871 58.2722 32.0899 58.2722 32.0899C58.2722 32.0899 53.2603 31.8162 49.9171 28.5618C46.574 25.3074 46.1656 20.3046 46.1656 20.3046C46.1656 20.3046 51.1776 20.5783 54.5208 23.8327Z" fill="#3F3D56"/>
<path d="M62.0238 23.8327C58.6806 27.0871 58.2723 32.0899 58.2723 32.0899C58.2723 32.0899 63.2842 31.8162 66.6274 28.5618C69.9705 25.3074 70.3789 20.3046 70.3789 20.3046C70.3789 20.3046 65.3669 20.5783 62.0238 23.8327Z" fill="#3F3D56"/>
<path d="M142.261 91.2481C143.044 94.1447 145.728 95.9386 145.728 95.9386C145.728 95.9386 147.142 93.0363 146.358 90.1397C145.574 87.2432 142.891 85.4493 142.891 85.4493C142.891 85.4493 141.477 88.3516 142.261 91.2481Z" fill="#82FF63"/>
<path d="M143.412 90.6256C145.562 92.7187 145.825 95.9362 145.825 95.9362C145.825 95.9362 142.601 95.7602 140.451 93.6672C138.301 91.5741 138.038 88.3566 138.038 88.3566C138.038 88.3566 141.262 88.5326 143.412 90.6256Z" fill="#3F3D56"/>
<path d="M16.8014 30.8199V95.8992H99.743V30.8199H16.8014ZM71.2517 63.7968C71.2517 64.3848 71.2167 64.9722 71.1467 65.556L70.7851 65.5126C70.7167 66.082 70.6139 66.6468 70.4771 67.2037L70.831 67.2906C70.6905 67.8623 70.5154 68.4249 70.3067 68.9754L69.966 68.8462C69.7625 69.3827 69.5265 69.9063 69.2594 70.4142L69.582 70.5838C69.308 71.1045 69.0029 71.6083 68.6683 72.0923L68.3686 71.8851C68.0423 72.3569 67.688 72.8087 67.3074 73.238L67.5801 73.4797C67.1899 73.9198 66.7738 74.3361 66.3338 74.7263L66.092 74.4537C65.663 74.8341 65.2115 75.1885 64.7399 75.5148L64.9472 75.8143C64.4636 76.1488 63.9603 76.4538 63.4401 76.7277L63.2704 76.4054C62.7628 76.6726 62.2395 76.9086 61.7033 77.1123L61.8326 77.4529C61.2826 77.6617 60.7203 77.8369 60.149 77.9775L60.0621 77.6238C59.5052 77.7609 58.9405 77.8641 58.3711 77.9327L58.4147 78.2944C57.8309 78.3645 57.2434 78.3998 56.6554 78.4001L56.6553 78.0367L56.6484 78.0367C56.0772 78.0366 55.5065 78.0023 54.9393 77.9343L54.896 78.296C54.312 78.226 53.7328 78.1208 53.1614 77.9812L53.2481 77.6271C52.6907 77.4906 52.1421 77.3202 51.6054 77.1169L51.4763 77.4576C50.926 77.249 50.3887 77.0072 49.8676 76.7336L50.037 76.4111C49.5291 76.1443 49.0378 75.8471 48.5658 75.521L48.3587 75.8207C47.8748 75.4863 47.4113 75.1232 46.9708 74.7334L47.2124 74.4605C46.783 74.0803 46.3768 73.6746 45.9961 73.2456L45.7236 73.4876C45.3333 73.0477 44.9697 72.5849 44.6347 72.1016L44.9343 71.894C44.6079 71.4227 44.3102 70.9321 44.0429 70.4249L43.7205 70.5947C43.4464 70.0741 43.204 69.5375 42.9947 68.9876L43.3353 68.8581C43.1313 68.322 42.9603 67.7741 42.823 67.2172L42.4692 67.3045C42.3285 66.7333 42.2225 66.1541 42.1517 65.5701L42.5132 65.5264C42.4438 64.9548 42.4089 64.3795 42.4085 63.8037L42.045 63.8106L42.0451 63.7912C42.0453 63.2098 42.0797 62.6289 42.1483 62.0516L42.51 62.0947C42.5779 61.5252 42.6802 60.9603 42.8164 60.4032L42.4624 60.3166C42.6023 59.7448 42.7768 59.182 42.985 58.6314L43.3258 58.7603C43.5288 58.2236 43.7643 57.6997 44.0308 57.1915L43.7082 57.0223C43.9817 56.5013 44.2863 55.9972 44.6204 55.5127L44.9203 55.7197C45.2461 55.2476 45.6 54.7955 45.9801 54.3659L45.7072 54.1244C46.0969 53.684 46.5127 53.2673 46.9522 52.8766L47.1943 53.1491C47.623 52.7681 48.0742 52.4133 48.5455 52.0866L48.3379 51.787C48.8211 51.4521 49.3241 51.1466 49.8441 50.8721L50.0142 51.1945C50.5215 50.9269 51.0445 50.6903 51.5805 50.4861L51.4507 50.1455C52.0006 49.9361 52.5627 49.7604 53.1339 49.6193L53.2212 49.973C53.7779 49.8353 54.3425 49.7316 54.9119 49.6623L54.8679 49.3009C55.4517 49.2301 56.0391 49.1942 56.6271 49.1935L56.6276 49.557C56.6345 49.557 56.6414 49.5568 56.6484 49.5568C57.2149 49.557 57.781 49.5906 58.3435 49.6576L58.3865 49.2958C58.9706 49.3652 59.55 49.4698 60.1215 49.6089L60.0351 49.9631C60.5927 50.0991 61.1415 50.2689 61.6784 50.4717L61.8072 50.1307C62.3578 50.3388 62.8953 50.58 63.4167 50.8532L63.2474 51.176C63.7556 51.4423 64.2473 51.739 64.7196 52.0647L64.9264 51.7646C65.4106 52.0987 65.8744 52.4613 66.3153 52.8506L66.074 53.1238C66.5038 53.5036 66.9103 53.9089 67.2914 54.3375L67.5638 54.0953C67.9545 54.5347 68.3185 54.9972 68.654 55.4801L68.3545 55.688C68.6814 56.159 68.9796 56.6494 69.2474 57.1564L69.5696 56.9861C69.8443 57.5064 70.0872 58.0428 70.2971 58.5925L69.9566 58.7224C70.161 59.2583 70.3326 59.8061 70.4705 60.3627L70.8243 60.2752C70.9654 60.8462 71.072 61.4253 71.1434 62.0092L70.782 62.0533C70.8515 62.6225 70.8869 63.1955 70.888 63.769H71.2517L71.2517 63.7968Z" fill="#3F3D56"/>
<path d="M20.4942 35.5682C21.2969 35.5682 21.9477 34.9174 21.9477 34.1147C21.9477 33.3119 21.2969 32.6612 20.4942 32.6612C19.6915 32.6612 19.0407 33.3119 19.0407 34.1147C19.0407 34.9174 19.6915 35.5682 20.4942 35.5682Z" fill="#82FF63"/>
<path d="M25 35.5682C25.8027 35.5682 26.4535 34.9174 26.4535 34.1147C26.4535 33.3119 25.8027 32.6612 25 32.6612C24.1973 32.6612 23.5465 33.3119 23.5465 34.1147C23.5465 34.9174 24.1973 35.5682 25 35.5682Z" fill="#82FF63"/>
<path d="M29.5058 35.5682C30.3085 35.5682 30.9593 34.9174 30.9593 34.1147C30.9593 33.3119 30.3085 32.6612 29.5058 32.6612C28.7031 32.6612 28.0523 33.3119 28.0523 34.1147C28.0523 34.9174 28.7031 35.5682 29.5058 35.5682Z" fill="#82FF63"/>
<path d="M95.7849 37.167H20.4942V37.4577H95.7849V37.167Z" fill="#E6E6E6"/>
<path d="M70.9302 83.824H42.0058V84.1147H70.9302V83.824Z" fill="#E6E6E6"/>
<path d="M70.9302 86.8763H42.0058V87.167H70.9302V86.8763Z" fill="#E6E6E6"/>
<path d="M70.9302 89.9286H42.0058V90.2193H70.9302V89.9286Z" fill="#E6E6E6"/>
<path d="M150 95.7426H0V96.0333H150V95.7426Z" fill="#3F3D56"/>
<path d="M111.245 28.7039C108.379 28.7039 106.055 31.2826 106.055 34.4636V38.5051H107.298L108.018 37.0077L107.838 38.5051H115.827L116.481 37.1438L116.318 38.5051H117.217V35.3318C117.217 31.6713 114.544 28.7039 111.245 28.7039Z" fill="#2F2E41"/>
<path d="M111.284 89.3007L113.657 95.6714L116.53 97.1702L114.282 89.3007H111.284Z" fill="#FFB8B8"/>
<path d="M124.4 89.8004L128.022 97.1702L129.896 96.0461L127.148 88.5513L124.4 89.8004Z" fill="#FFB8B8"/>
<path d="M110.41 37.3374C112.341 37.3374 113.907 35.7714 113.907 33.8398C113.907 31.9082 112.341 30.3423 110.41 30.3423C108.478 30.3423 106.912 31.9082 106.912 33.8398C106.912 35.7714 108.478 37.3374 110.41 37.3374Z" fill="#FFB8B8"/>
<path d="M109.91 36.5879C109.91 36.5879 111.159 39.8356 110.41 40.71C109.66 41.5844 115.156 39.3359 115.156 39.3359C115.156 39.3359 112.783 36.463 112.908 35.2139L109.91 36.5879Z" fill="#FFB8B8"/>
<path d="M114.282 39.0861L116.156 38.7114L118.029 36.463C118.029 36.463 118.904 33.3402 120.028 32.4658V32.0911C120.028 32.0911 114.282 28.3437 112.533 28.4686C112.533 28.4686 106.662 30.2174 107.786 28.4686C108.103 27.9768 108.646 27.5837 109.264 27.2728C110.151 26.8362 111.119 26.5858 112.107 26.5369C113.095 26.488 114.082 26.6417 115.008 26.9886L123.151 29.9675C123.333 30.4067 123.416 30.8806 123.394 31.3555C123.373 31.8304 123.247 32.2948 123.026 32.7156C122.276 34.2146 119.653 41.9591 119.653 41.9591C119.034 43.2159 118.492 44.509 118.029 45.8314C117.405 47.7051 116.905 48.9542 116.905 48.9542L106.288 48.8293L107.162 44.957C107.162 44.957 106.288 43.3331 105.038 43.2082C105.038 43.2082 96.0447 39.7107 95.67 37.5872C95.67 37.5872 95.5451 36.8377 96.0447 36.463C96.5444 36.0882 102.165 29.9675 102.165 29.9675C102.165 29.9675 104.664 26.7198 105.913 27.7191C107.162 28.7184 103.664 31.2167 103.664 31.2167C103.664 31.2167 100.042 36.7128 99.5423 37.0875C99.5423 37.0875 103.04 39.211 104.039 39.4609C105.038 39.7107 107.412 39.4609 108.536 40.4602C109.036 40.5982 109.558 40.6362 110.072 40.5719C110.587 40.5076 111.083 40.3423 111.534 40.0854C113.033 39.211 114.282 39.0861 114.282 39.0861Z" fill="#FFB8B8"/>
<path d="M109.036 39.9605L107.162 44.957C107.162 44.957 105.538 46.4559 106.163 49.9535C106.163 49.9535 106.413 53.2012 105.663 54.2005C104.914 55.1998 94.5459 66.5668 104.414 90.5499C104.414 90.5499 111.034 89.3008 116.031 91.4243C121.027 93.5478 129.271 89.1759 129.271 89.1759L116.281 57.1984C116.281 57.1984 115.906 50.578 118.029 47.5801L116.655 46.4559C116.655 46.4559 115.031 42.4587 115.281 41.2096C115.281 41.2096 115.781 38.7114 116.031 38.4616H115.031L113.657 41.7093C113.657 41.7093 111.409 45.9563 109.535 45.5816C107.662 45.2068 109.161 42.5837 109.161 42.5837L109.785 40.0854L109.036 39.9605Z" fill="#10A30D"/>
<path d="M116.53 96.046C116.53 96.046 113.693 94.8854 113.488 95.2159C113.283 95.5464 112.283 97.545 112.283 97.545C112.283 97.545 108.411 101.542 111.534 102.042C114.657 102.542 115.031 100.793 115.031 100.793C115.031 100.793 115.156 100.668 115.656 100.668C116.156 100.668 118.154 99.9183 118.029 99.5436C117.904 99.1689 116.53 96.046 116.53 96.046Z" fill="#10A30D"/>
<path d="M130.021 95.1717C130.021 95.1717 127.398 95.7962 127.273 96.2959C127.148 96.7955 126.274 100.168 127.023 100.418C127.772 100.668 128.897 101.043 129.271 100.918C129.646 100.793 130.521 102.541 132.394 102.167C134.268 101.792 135.142 101.542 135.017 101.417C134.892 101.292 134.393 99.4187 132.894 98.6692C131.395 97.9197 130.021 95.1717 130.021 95.1717Z" fill="#10A30D"/>
<path d="M112.721 30.2905C112.471 29.9552 112.147 29.6818 111.775 29.4918C111.402 29.3017 110.991 29.2 110.573 29.1946H110.471C108.506 29.1946 106.914 30.9723 106.914 33.1652V33.1652H107.572L107.678 32.356L107.834 33.1652H111.739L112.066 32.4807L111.984 33.1652H112.752C113.11 34.9452 112.595 36.7252 111.207 38.5051H112.515L113.17 37.1359L113.006 38.5051H115.5L115.991 35.356C115.991 32.9975 114.62 30.9976 112.721 30.2905Z" fill="#2F2E41"/>
<path d="M120.34 14.5757C120.34 14.5641 120.34 14.5525 120.34 14.5409C120.34 13.9813 120.307 13.4223 120.242 12.8666L120.658 12.8158C120.586 12.2319 120.48 11.6529 120.338 11.0819L119.94 11.1804C119.806 10.6246 119.638 10.0774 119.437 9.542L119.811 9.39919C119.602 8.84954 119.359 8.31311 119.084 7.79283L118.739 7.97523C118.474 7.46741 118.179 6.976 117.856 6.50368L118.168 6.28697C117.833 5.80393 117.469 5.34142 117.078 4.9019L116.802 5.14759C116.423 4.71671 116.019 4.30894 115.592 3.9265L115.829 3.65742C115.389 3.26798 114.925 2.90529 114.441 2.57128L114.243 2.85824C113.772 2.52928 113.281 2.22914 112.774 1.95945L112.931 1.65987C112.409 1.38684 111.872 1.14557 111.321 0.937387L111.205 1.24445C110.668 1.038 110.119 0.86457 109.56 0.725138L109.636 0.415606C109.064 0.276321 108.485 0.171733 107.901 0.102411L107.864 0.409654C107.293 0.33911 106.718 0.302968 106.142 0.301423L106.141 0C105.553 0.000834165 104.966 0.0367142 104.382 0.107449L104.418 0.400304C103.845 0.467654 103.277 0.569843 102.717 0.706303L102.648 0.425685C102.077 0.566952 101.515 0.742739 100.965 0.952078L101.066 1.21741C100.526 1.42143 99.9997 1.65823 99.489 1.9265L99.3582 1.67883C98.8383 1.95332 98.3353 2.25883 97.8521 2.59371L98.0101 2.82182C97.5356 3.15003 97.0814 3.50664 96.65 3.88972L96.4666 3.68319C96.027 4.07396 95.6111 4.49069 95.2213 4.93115L95.4282 5.11412C95.046 5.54651 94.6902 6.00165 94.3629 6.47704L94.1346 6.31942C93.8005 6.80378 93.4958 7.30785 93.2224 7.8289L93.4703 7.95896C93.2032 8.47055 92.9675 8.99799 92.7647 9.53833L92.4993 9.43789C92.2911 9.98857 92.1165 10.5514 91.9765 11.1232L92.2573 11.1919C92.1223 11.7523 92.0215 12.3204 91.9556 12.8931L91.6624 12.8582C91.5937 13.4374 91.5593 14.0201 91.5592 14.6034V14.6172L91.8611 14.6114C91.8636 15.1892 91.9009 15.7663 91.9729 16.3396L91.6661 16.3767C91.7368 16.9607 91.8428 17.5398 91.9833 18.111L92.2926 18.0348C92.4334 18.5925 92.6081 19.1412 92.8157 19.6777L92.5088 19.7944C92.7182 20.3442 92.9606 20.8809 93.2347 21.4014L93.5341 21.2437C93.8048 21.75 94.1058 22.2396 94.4356 22.7096L94.1491 22.908C94.484 23.3913 94.8476 23.8542 95.2378 24.2941L95.5064 24.0557C95.8898 24.4824 96.2984 24.8856 96.7301 25.2632L96.4852 25.5398C96.9256 25.9298 97.389 26.293 97.8729 26.6274L98.089 26.3146C98.5623 26.6373 99.0546 26.9312 99.5633 27.1945L99.3818 27.5403C99.903 27.8138 100.44 28.0556 100.991 28.2643L101.132 27.8896C101.669 28.0892 102.217 28.2561 102.773 28.3892L102.676 28.7876C103.247 28.9275 103.826 29.0326 104.41 29.1026L104.46 28.6863C105.005 28.7491 105.552 28.7806 106.1 28.7809C106.123 28.7809 106.146 28.7801 106.169 28.78L106.17 29.2067C106.758 29.2064 107.345 29.1711 107.929 29.1009L107.877 28.6707C108.443 28.6001 109.005 28.4954 109.558 28.3571L109.664 28.7844C110.235 28.6436 110.797 28.4683 111.347 28.2596L111.189 27.8436C111.721 27.6397 112.241 27.4039 112.745 27.1374L112.954 27.5346C113.475 27.2606 113.978 26.9555 114.462 26.621L114.205 26.2499C114.673 25.9251 115.122 25.5726 115.548 25.1942L115.848 25.5329C116.288 25.1426 116.704 24.7263 117.094 24.2862L116.756 23.986C117.134 23.5595 117.487 23.1108 117.811 22.6422L118.183 22.8989C118.517 22.4148 118.822 21.9111 119.096 21.3904L118.699 21.1815C118.965 20.6771 119.201 20.157 119.405 19.6242L119.821 19.782C120.03 19.2316 120.205 18.669 120.345 18.0973L119.918 17.9924C120.056 17.4387 120.16 16.8772 120.231 16.311L120.661 16.3627C120.731 15.7789 120.766 15.1914 120.766 14.6034V14.5757L120.34 14.5757Z" fill="#3F3D56"/>
</g>
<defs>
<clipPath id="clip0">
<rect width="150" height="102.219" fill="white"/>
</clipPath>
</defs>
</svg>
